<svg width="80" height="80" viewBox="0 0 80 80" fill="none" xmlns="http://www.w3.org/2000/svg">
<rect width="80" height="80" fill="none"/>
<path d="M28.4732 42.4782V39.1285H27.3965V37.6469H28.464V35.8801H30.1572V37.6469H31.464V39.1285H30.1664V42.0273C30.1664 42.4414 30.3781 42.7451 30.7554 42.7451C30.967 42.7543 31.1787 42.6807 31.3443 42.5426L31.7032 43.8402C31.4456 44.0702 30.9946 44.2543 30.2861 44.2543C29.0989 44.2543 28.4732 43.6377 28.4732 42.4782ZM31.8597 40.8586C31.8597 38.9905 33.2492 37.4721 35.2002 37.4721C37.1511 37.4721 38.4302 38.9169 38.4302 41.015V41.4199H33.6357C33.7554 42.2113 34.3996 42.8647 35.5038 42.8647C36.0468 42.8647 36.8014 42.6347 37.2155 42.2389L37.9793 43.3616C37.3351 43.9506 36.3229 44.2543 35.3198 44.2543C33.3505 44.2543 31.8597 42.9291 31.8597 40.8586ZM35.2002 38.8708C34.1419 38.8708 33.691 39.607 33.6265 40.2512H36.8014C36.7554 39.6347 36.3229 38.8708 35.2002 38.8708ZM43.4272 44.0886V40.196C43.4272 39.3034 42.9578 38.9905 42.24 38.9905C41.6603 38.9997 41.1173 39.2758 40.7677 39.7359V44.0886H39.0744V37.6377H40.7677V38.4659C41.3474 37.831 42.1664 37.4721 43.0223 37.4721C44.4486 37.4721 45.1296 38.2727 45.1296 39.5334V44.0886H43.4272ZM49.9701 44.0886V43.4077C49.5284 43.9414 48.7646 44.2543 47.9272 44.2543C46.8965 44.2543 45.7002 43.5641 45.7002 42.1193C45.7002 40.5917 46.9057 40.0396 47.9272 40.0396C48.7922 40.0396 49.5468 40.3248 49.9701 40.831V40.012C49.9701 39.3586 49.4088 38.9353 48.5529 38.9353C47.8535 38.9445 47.191 39.2113 46.6848 39.6991L46.013 38.512C46.7953 37.8402 47.7983 37.4721 48.829 37.4997C50.3106 37.4997 51.6634 38.0886 51.6634 39.9475V44.1162H49.9701V44.0886ZM49.9701 42.5426V41.742C49.694 41.3647 49.1603 41.1715 48.6173 41.1715C47.9456 41.1715 47.4026 41.5304 47.4026 42.1469C47.4026 42.7635 47.9456 43.104 48.6173 43.104C49.1511 43.104 49.6848 42.9199 49.9701 42.5426ZM52.3996 44.0886V35.1807H54.0928V38.4659C54.5621 37.8402 55.2983 37.4721 56.0805 37.4721C57.7278 37.4721 58.9425 38.7512 58.9425 40.8586C58.9425 43.0212 57.7186 44.2451 56.0805 44.2451C55.2983 44.2451 54.5621 43.877 54.0928 43.2604V44.0886H52.3996ZM55.5744 42.7359C56.5499 42.7359 57.2032 41.9721 57.2032 40.8494C57.2032 39.7267 56.5499 38.9813 55.5744 38.9813C54.9946 38.9905 54.4517 39.2666 54.102 39.7267V42.0089C54.4609 42.469 54.9946 42.7359 55.5744 42.7359ZM59.5223 44.0886V35.1807H61.2155V44.0886H59.5223ZM61.8597 40.8586C61.8597 38.9905 63.2492 37.4721 65.2002 37.4721C67.1511 37.4721 68.4302 38.9169 68.4302 41.015V41.4199H63.6358C63.7554 42.2113 64.3996 42.8647 65.5038 42.8647C66.0468 42.8647 66.8014 42.6347 67.2155 42.2389L67.9793 43.3616C67.3351 43.9506 66.3229 44.2543 65.3198 44.2543C63.3413 44.2543 61.8597 42.9291 61.8597 40.8586ZM65.191 38.8708C64.1327 38.8708 63.6818 39.607 63.6173 40.2512H66.7922C66.7462 39.6347 66.3137 38.8708 65.191 38.8708ZM68.9456 36.8279C69.0284 36.8739 69.102 36.9475 69.148 37.0304C69.194 37.1132 69.2216 37.2144 69.2216 37.3156C69.2216 37.4169 69.194 37.5089 69.148 37.6009C69.102 37.6837 69.0284 37.7574 68.9456 37.8034C68.8627 37.8494 68.7615 37.877 68.6603 37.877C68.4578 37.877 68.2738 37.7758 68.1818 37.6009C68.1358 37.5181 68.1081 37.4169 68.1081 37.3156C68.1081 37.2144 68.1358 37.1132 68.1818 37.0304C68.2278 36.9475 68.3014 36.8739 68.3842 36.8279C68.467 36.7727 68.5683 36.7543 68.6603 36.7543C68.7615 36.7543 68.8627 36.7819 68.9456 36.8279ZM68.8903 37.7113C68.9548 37.6745 69.01 37.6101 69.0468 37.5457C69.1204 37.3985 69.1204 37.2236 69.0468 37.0764C69.01 37.0028 68.9548 36.9475 68.8903 36.9107C68.8259 36.8739 68.7431 36.8463 68.6603 36.8555C68.5775 36.8555 68.5038 36.8739 68.4394 36.9107C68.375 36.9475 68.3198 37.012 68.283 37.0764C68.2094 37.2236 68.2094 37.3985 68.283 37.5457C68.3198 37.6193 68.375 37.6745 68.4394 37.7113C68.5038 37.7481 68.5867 37.7758 68.6603 37.7666C68.7431 37.7758 68.8259 37.7481 68.8903 37.7113ZM68.8627 37.2972C68.8351 37.3248 68.7983 37.3524 68.7615 37.3616L68.9272 37.6101H68.7799L68.6419 37.3801H68.5867V37.6101H68.4578V36.9935H68.6235C68.8075 36.9935 68.8903 37.058 68.8903 37.1776C68.8996 37.2328 68.8904 37.2696 68.8627 37.2972ZM68.5867 37.2788H68.6511C68.7339 37.2788 68.7707 37.2512 68.7707 37.1868C68.7707 37.1592 68.7615 37.1316 68.7431 37.1224C68.7155 37.104 68.6787 37.104 68.6511 37.104H68.5867V37.2788Z" fill="#445464"/>
<path d="M24.7736 35.8987C24.8104 36.0275 24.93 36.4968 25.0497 36.9386L25.9883 40.4447C26.1079 40.8864 26.2368 41.3557 26.2644 41.4846C26.3104 41.6778 26.2552 41.8803 26.1171 42.0183L25.3533 42.7821L22.7951 45.3404C22.473 45.6809 22.1417 46.0214 22.0312 46.1042C21.884 46.233 21.6816 46.2882 21.4975 46.2514L20.4576 45.9754L16.9515 45.0367L15.9116 44.7606C15.8196 44.733 15.7368 44.687 15.6631 44.6134C15.5895 44.549 15.5435 44.457 15.5159 44.3649C15.4791 44.2361 15.3595 43.7668 15.2398 43.3251L14.3012 39.8189L14.0251 38.779L14.1631 38.733L14.3012 38.6962C14.338 38.8251 14.4576 39.2944 14.5773 39.7361L15.5159 43.2514C15.6355 43.6932 15.7644 44.1625 15.792 44.2913C15.8104 44.3373 15.838 44.3741 15.8656 44.4109C15.9024 44.4478 15.9392 44.4754 15.9852 44.4846L17.0251 44.7606L20.5312 45.6993L21.5711 45.9754C21.6631 45.9938 21.7644 45.9662 21.838 45.9017L22.6018 45.1379L25.1693 42.5705L25.9331 41.8066C25.9975 41.733 26.0159 41.6318 26.0067 41.5398C25.9699 41.4109 25.8503 40.9416 25.7306 40.4999L24.7828 37.0122C24.6631 36.5705 24.5343 36.1011 24.5067 35.9723C24.4883 35.9263 24.4607 35.8895 24.4331 35.8527C24.3963 35.8159 24.3595 35.7882 24.3135 35.779L23.2736 35.4938L19.7766 34.5551L18.7276 34.279C18.6355 34.2606 18.5343 34.2882 18.4607 34.3527L17.6969 35.1165L15.1294 37.684L14.3656 38.4478C14.3012 38.5214 14.2736 38.6226 14.292 38.7146L14.1539 38.7422L14.0159 38.779C13.9699 38.5858 14.0251 38.3833 14.1631 38.2453L14.927 37.4815L17.4944 34.9232L18.2582 34.1594C18.4055 34.0214 18.6079 33.9754 18.792 34.0122L19.8319 34.2882L23.338 35.2269L24.3779 35.503C24.4699 35.5306 24.5527 35.5858 24.6263 35.6502C24.7 35.7238 24.746 35.8066 24.7736 35.8987Z" fill="#00A6B4"/>
<path d="M20.3754 34.9693L21.1392 35.411L23.7343 36.911L24.5073 37.3527C24.6453 37.4355 24.7281 37.5828 24.7373 37.7484V38.6318V42.5153C24.7281 42.6809 24.6453 42.8282 24.5073 42.911L23.7435 43.3527L21.1392 44.8527L20.3754 45.2944C20.3018 45.3312 20.2281 45.3496 20.1453 45.3496C20.0625 45.3496 19.9889 45.3312 19.9153 45.2944L19.1515 44.8527L16.5472 43.3527L15.7834 42.911L15.8386 42.8097L15.8938 42.7085L16.6576 43.1502L19.2527 44.6502L20.0257 45.092C20.0625 45.1104 20.0993 45.1196 20.1361 45.1196C20.1729 45.1196 20.2189 45.1104 20.2558 45.092L21.0196 44.6502L23.6146 43.1502L24.3785 42.7085C24.4429 42.6625 24.4889 42.5889 24.5073 42.5061V41.6226V37.7392C24.4981 37.6564 24.4521 37.5828 24.3877 37.5459L23.6238 37.1042L21.0288 35.6042L20.265 35.1625C20.2281 35.1441 20.1913 35.1349 20.1453 35.1349C20.1085 35.1349 20.0625 35.1441 20.0349 35.1625L19.2619 35.6042L16.6668 37.1042L15.903 37.5459C15.8386 37.592 15.7926 37.6656 15.7834 37.7484V38.6318V42.5153C15.7926 42.5981 15.8294 42.6625 15.903 42.7177L15.8478 42.8189L15.7926 42.9202C15.6545 42.8374 15.5717 42.6901 15.5625 42.5245C15.5625 42.414 15.5625 42.0183 15.5625 41.641V37.7576C15.5717 37.592 15.6545 37.4447 15.7926 37.3619L16.5564 36.9202L19.1607 35.4202L19.9245 34.9785C19.9981 34.9416 20.0717 34.9232 20.1545 34.9232C20.2281 34.914 20.311 34.9324 20.3754 34.9693Z" fill="#00A6B4"/>
<path d="M17.0444 36.7085L17.8082 36.506L20.3849 35.8158L21.1487 35.6134C21.2867 35.5858 21.4339 35.6226 21.5444 35.7238L22.1057 36.2851L23.9922 38.1716L24.5536 38.733C24.6548 38.8342 24.6916 38.9907 24.6548 39.1287C24.6272 39.2207 24.5352 39.5704 24.4523 39.8925L23.7622 42.4692C23.6701 42.7913 23.5781 43.1502 23.5597 43.233C23.5413 43.2974 23.5045 43.3618 23.4493 43.417C23.4033 43.4723 23.3388 43.5091 23.2652 43.5275L22.5014 43.7299L19.9247 44.4201L19.1609 44.6226L19.1333 44.5305L19.1057 44.4293L19.8695 44.2269L22.4462 43.5367L23.21 43.3342C23.2468 43.325 23.2744 43.3066 23.302 43.279C23.3296 43.2514 23.348 43.2238 23.3572 43.187L23.5597 42.4232L24.2499 39.8465C24.3419 39.5244 24.4339 39.1747 24.4523 39.0827C24.4615 39.0091 24.4431 38.9447 24.3971 38.8894L23.845 38.3281L21.9585 36.4416L21.3971 35.8802C21.3419 35.8342 21.2683 35.8158 21.2039 35.825L20.4401 36.0275L17.8634 36.7269L17.0996 36.9293C17.0628 36.9385 17.0352 36.9569 17.0076 36.9845C16.9799 37.0121 16.9615 37.0397 16.9523 37.0766C16.9247 37.1686 16.8327 37.5183 16.7499 37.8404L16.0597 40.4078C15.9769 40.7299 15.8849 41.0796 15.8572 41.1716C15.848 41.2453 15.8665 41.3097 15.9125 41.3649L16.4738 41.9263L18.3603 43.8128L18.9217 44.3741C18.9769 44.4201 19.0505 44.4385 19.1149 44.4293L19.1425 44.5305L19.1701 44.6318C19.0321 44.6594 18.8849 44.6226 18.7744 44.5213L18.2131 43.96L16.3174 42.0459L15.756 41.4845C15.6548 41.3833 15.618 41.2361 15.6456 41.0888C15.6732 40.9968 15.7652 40.6471 15.848 40.325L16.5382 37.7483L16.7407 36.9845C16.7591 36.9201 16.7959 36.8557 16.8511 36.8005C16.9155 36.7637 16.9799 36.7269 17.0444 36.7085Z" fill="#00A6B4"/>
<path d="M16.3636 43.9231C14.2746 41.8341 14.2746 38.4476 16.3636 36.3495C18.4525 34.2513 21.8391 34.2605 23.9372 36.3495C26.0354 38.4384 26.0262 41.8249 23.9372 43.9231C21.8483 46.012 18.4618 46.012 16.3636 43.9231ZM23.7624 43.7482C25.7501 41.7513 25.7409 38.5212 23.744 36.5427C21.747 34.555 18.517 34.5642 16.5384 36.5611C14.5599 38.5489 14.5599 41.7697 16.5476 43.7574C18.5354 45.7544 21.7654 45.7452 23.7624 43.7482C23.7624 43.7574 23.7624 43.7574 23.7624 43.7482Z" fill="#00A6B4"/>
<path d="M20.3211 36.2578L20.8917 36.5891L22.815 37.6934L23.3855 38.0246C23.4868 38.0891 23.5512 38.1995 23.5512 38.3191V38.9725V41.8529C23.542 41.9725 23.4868 42.0829 23.3855 42.1473L22.815 42.4694L20.8917 43.5829L20.3211 43.9142C20.2659 43.9418 20.2107 43.9602 20.1555 43.9602C20.1003 43.9602 20.0358 43.9418 19.9898 43.9142L19.4193 43.5829L17.496 42.4694L16.9254 42.1381L16.9714 42.0645L17.0174 41.9909L17.5788 42.3222L19.5021 43.4357L20.0726 43.767C20.1003 43.7854 20.1279 43.7854 20.1555 43.7854C20.1831 43.7854 20.2107 43.7854 20.2383 43.767L20.8088 43.4357L22.7322 42.3222L23.3027 41.9909C23.3487 41.9541 23.3855 41.9081 23.3855 41.8437V41.1903V38.3099C23.3763 38.2547 23.3487 38.1995 23.3027 38.1627L22.7322 37.8314L20.818 36.7271L20.2475 36.3958C20.2199 36.3866 20.1923 36.3774 20.1647 36.3774C20.1371 36.3774 20.1095 36.3866 20.0819 36.3958L19.5113 36.7271L17.588 37.8314L17.0174 38.1627C16.9714 38.1995 16.9346 38.2547 16.9346 38.3099V38.9633V41.8437C16.9438 41.8989 16.9714 41.9541 17.0174 41.9909L16.9714 42.0645L16.9254 42.1381C16.8242 42.0737 16.7598 41.9633 16.7598 41.8437V41.1811V38.3007C16.7598 38.1811 16.8242 38.0707 16.9254 38.0062L17.496 37.675L19.4193 36.5707L19.9898 36.2394C20.045 36.2118 20.1003 36.1934 20.1555 36.1934C20.2107 36.221 20.2659 36.2302 20.3211 36.2578Z" fill="#00A6B4"/>
<path d="M17.349 42.8829C15.803 41.3369 15.803 38.8247 17.349 37.2786C18.895 35.7326 21.4072 35.7326 22.9533 37.2786C24.4993 38.8247 24.4993 41.3369 22.9533 42.8829C21.4072 44.4382 18.895 44.4382 17.349 42.8829ZM22.8244 42.7633C24.2968 41.2909 24.2876 38.8983 22.8152 37.4259C21.3428 35.9535 18.9502 35.9627 17.4778 37.4351C16.0146 38.9075 16.0146 41.2909 17.4778 42.7633C18.9502 44.2357 21.3428 44.2449 22.8244 42.7633Z" fill="#00A6B4"/>
</svg>
