<svg width="80" height="80" viewBox="0 0 80 80" fill="none" xmlns="http://www.w3.org/2000/svg">
<rect width="80" height="80" fill="none"/>
<path d="M16 40.4284C16 42.8006 16.333 45.0909 16.8991 47.2856H50.2857C54.0726 47.2856 57.1429 44.2153 57.1429 40.4284C57.1429 36.6416 54.0726 33.5713 50.2857 33.5713H16.8991C16.3101 35.8097 16.008 38.1139 16 40.4284Z" fill="#343741"/>
<path d="M62.154 26.1349C63.1128 25.2524 64.0048 24.3001 64.8227 23.2857C59.7938 17.0196 52.0843 13 43.4275 13C32.5911 13 23.2663 19.3043 18.8164 28.4286H56.3018C58.4712 28.4271 60.5603 27.6081 62.1527 26.1349" fill="#FEC514"/>
<path d="M56.3025 52.4287H18.8184C23.2686 61.553 32.5918 67.8573 43.4282 67.8573C52.0854 67.8573 59.7945 63.836 64.8234 57.5716C64.0059 56.5568 63.1139 55.6044 62.1546 54.7224C60.5617 53.2493 58.4722 52.4303 56.3025 52.4287Z" fill="#00BFB3"/>
</svg>
