<svg width="80" height="80" viewBox="0 0 80 80" fill="none" xmlns="http://www.w3.org/2000/svg">
<rect width="80" height="80" fill="none"/>
<path d="M27.0529 35.1437C27.0529 35.875 27.1316 36.4679 27.2709 36.9015C27.4284 37.3356 27.6262 37.81 27.9023 38.3228C27.9993 38.4803 28.0396 38.6378 28.0396 38.777C28.0396 38.9729 27.9205 39.1707 27.6646 39.3681L26.421 40.1978C26.2434 40.315 26.0657 40.3754 25.9087 40.3754C25.7109 40.3754 25.513 40.2765 25.3152 40.0989C25.0498 39.8125 24.8118 39.5017 24.6046 39.1707C24.385 38.791 24.1811 38.4024 23.9934 38.0059C22.4549 39.8223 20.5199 40.7307 18.1902 40.7307C16.5332 40.7307 15.2113 40.2564 14.2429 39.3095C13.2759 38.3612 12.7832 37.0979 12.7832 35.5192C12.7832 33.842 13.3748 32.4798 14.5799 31.4546C15.7827 30.4271 17.3812 29.9143 19.4155 29.9143C20.0859 29.9143 20.7759 29.9729 21.5062 30.0718C22.2374 30.1707 22.9879 30.3282 23.7773 30.5059V29.065C23.7773 27.565 23.4604 26.5196 22.8491 25.9084C22.2163 25.2967 21.1509 25 19.6312 25C18.9407 25 18.2305 25.0787 17.4998 25.2564C16.7742 25.4292 16.0619 25.6537 15.3684 25.9281C15.0515 26.0654 14.8152 26.1442 14.6779 26.1845C14.5391 26.2229 14.4402 26.2431 14.3615 26.2431C14.0849 26.2431 13.9476 26.0453 13.9476 25.6318V24.6648C13.9476 24.3479 13.986 24.1117 14.0849 23.9729C14.1834 23.8356 14.3615 23.6982 14.638 23.559C15.328 23.2037 16.1577 22.9075 17.1243 22.6707C18.0913 22.4143 19.1184 22.2957 20.204 22.2957C22.5515 22.2957 24.269 22.8282 25.3752 23.8942C26.4609 24.9596 27.0121 26.5782 27.0121 28.75V35.1437H27.0529ZM19.0401 38.1451C19.6902 38.1451 20.362 38.0261 21.0726 37.7898C21.7832 37.5517 22.4146 37.1181 22.9476 36.5265C23.2626 36.1515 23.5007 35.7371 23.6179 35.2632C23.737 34.7889 23.8157 34.2179 23.8157 33.5453V32.7179C23.2178 32.571 22.612 32.4585 22.0012 32.3809C21.3853 32.3032 20.7652 32.2641 20.1445 32.2637C18.8226 32.2637 17.8555 32.5201 17.2035 33.0531C16.5534 33.5856 16.237 34.3346 16.237 35.3218C16.237 36.25 16.4732 36.9404 16.9673 37.4143C17.4416 37.907 18.1321 38.1451 19.0401 38.1451ZM34.888 40.2765C34.5327 40.2765 34.2965 40.2179 34.139 40.0787C33.9796 39.9596 33.8423 39.685 33.7232 39.31L29.0854 24.0531C28.9682 23.6579 28.9073 23.4015 28.9073 23.2623C28.9073 22.9473 29.0652 22.7701 29.3821 22.7701H31.3157C31.6907 22.7701 31.9471 22.8282 32.0863 22.9675C32.2438 23.0846 32.3629 23.3612 32.4801 23.7362L35.796 36.8031L38.8757 23.7367C38.9732 23.3429 39.0923 23.0851 39.2493 22.9679C39.4087 22.8484 39.6852 22.7696 40.0405 22.7696H41.6188C41.9938 22.7696 42.2507 22.8282 42.4082 22.9675C42.5657 23.0846 42.7049 23.3612 42.7832 23.7362L45.9018 36.9606L49.3166 23.7367C49.4338 23.3429 49.573 23.0851 49.7104 22.9679C49.8679 22.8484 50.1262 22.7696 50.481 22.7696H52.3157C52.6326 22.7696 52.8102 22.9271 52.8102 23.2623C52.8102 23.3607 52.7901 23.4601 52.7699 23.5792C52.7498 23.6982 52.7113 23.8557 52.6326 24.0714L47.8757 39.3296C47.7566 39.7234 47.6193 39.9798 47.4599 40.0984C47.3024 40.2179 47.046 40.2967 46.7109 40.2967H45.014C44.6385 40.2967 44.3821 40.2357 44.2246 40.0989C44.0652 39.9596 43.9279 39.7032 43.8491 39.3095L40.7896 26.5782L37.7498 39.2893C37.6513 39.685 37.5341 39.9414 37.3748 40.0787C37.2168 40.2179 36.9407 40.2765 36.5854 40.2765H34.888ZM60.2498 40.8095C59.2246 40.8095 58.1971 40.6904 57.2104 40.4542C56.2232 40.2179 55.4545 39.9596 54.9416 39.6648C54.6248 39.4871 54.4087 39.2898 54.3299 39.1117C54.2521 38.9376 54.2116 38.7492 54.2109 38.5586V37.5517C54.2109 37.1382 54.3684 36.9404 54.6655 36.9404C54.7827 36.9404 54.9013 36.9606 55.0204 37.0009C55.1376 37.0393 55.3152 37.1181 55.5126 37.1968C56.2103 37.5032 56.9384 37.7352 57.6848 37.8887C58.4737 38.0462 59.2429 38.125 60.0337 38.125C61.2773 38.125 62.2438 37.907 62.9141 37.4734C63.5859 37.0393 63.9412 36.4075 63.9412 35.5984C63.9412 35.0453 63.7635 34.5929 63.4087 34.2175C63.0534 33.8425 62.3812 33.5068 61.4146 33.1904L58.5524 32.3021C57.1115 31.8479 56.0455 31.1781 55.3959 30.2898C54.7443 29.4203 54.4087 28.4532 54.4087 27.4281C54.4087 26.5984 54.5868 25.8681 54.9416 25.2362C55.294 24.6013 55.7785 24.0493 56.3624 23.6176C56.954 23.1653 57.6262 22.8282 58.4155 22.592C59.2045 22.3557 60.0337 22.2568 60.9018 22.2568C61.3359 22.2568 61.7896 22.277 62.2237 22.3356C62.6779 22.3942 63.0918 22.4729 63.5071 22.5517C63.9009 22.6506 64.2763 22.7495 64.6316 22.8686C64.987 22.9876 65.2635 23.1048 65.4613 23.2239C65.7379 23.3814 65.9352 23.5389 66.0524 23.7161C66.1715 23.8754 66.2301 24.092 66.2301 24.3681V25.2962C66.2301 25.7106 66.0726 25.9281 65.7759 25.9281C65.6184 25.9281 65.362 25.8479 65.0273 25.6904C63.9009 25.1776 62.6376 24.9212 61.237 24.9212C60.1124 24.9212 59.2246 25.0989 58.6129 25.4743C57.9993 25.8479 57.6848 26.4212 57.6848 27.2303C57.6848 27.7834 57.8821 28.2573 58.2759 28.6309C58.6715 29.0059 59.4023 29.3818 60.4476 29.7165L63.2507 30.6048C64.672 31.059 65.6976 31.6904 66.3088 32.5C66.9205 33.3095 67.2173 34.2376 67.2173 35.2632C67.2173 36.1126 67.0391 36.8818 66.7045 37.5517C66.3491 38.2239 65.8748 38.8154 65.2635 39.2893C64.6518 39.782 63.921 40.1373 63.0735 40.3956C62.1852 40.6703 61.2571 40.8095 60.2498 40.8095Z" fill="#252F3E"/>
<path d="M65.3117 44.3814C63.2342 44.411 60.7817 44.8746 58.9269 46.1777C58.3536 46.5916 58.4525 47.1443 59.0844 47.0655C61.1975 46.8091 65.8531 46.2565 66.6828 47.3219C67.5125 48.3672 65.7566 52.7688 64.9658 54.7235C64.7296 55.3141 65.2424 55.5527 65.7749 55.0985C69.2483 52.1777 70.1567 46.0788 69.4461 45.1905C69.0913 44.7569 67.3892 44.3514 65.3117 44.3814ZM10.7633 45.5585C10.3288 45.6129 10.1319 46.1379 10.5908 46.5527C18.3289 53.538 28.5716 57.7427 39.9406 57.7427C48.0524 57.7427 57.486 55.1974 63.9786 50.4021C65.0441 49.6108 64.1178 48.408 63.0317 48.9002C55.7502 51.9799 47.8344 53.4799 40.6311 53.4799C29.9539 53.4799 19.6311 50.5394 11.2625 45.6832C11.0797 45.5749 10.9086 45.5407 10.7638 45.5585H10.7633Z" fill="#FF9900"/>
</svg>
