<?xml version="1.0" encoding="UTF-8"?>
<svg id="Andesite-black" xmlns="http://www.w3.org/2000/svg" viewBox="0 0 415 357.69">
  <defs>
    <style>
      .andesite-icon-black {
        fill: #2d262c;
        stroke-width: 0px;
      }
    </style>
  </defs>
  <polygon class="andesite-icon-black" points="285.08 0 281.12 0 281.12 47.67 285.08 53.16 285.08 0"/>
  <polygon class="andesite-icon-black" points="163.09 113.11 159.12 112.3 159.12 0 155.16 0 155.16 111.49 151.2 110.68 151.2 203.55 163.09 211.48 163.09 113.11"/>
  <polygon class="andesite-icon-black" points="213.47 90.92 209.51 93.46 209.51 0 205.54 0 205.54 95.99 201.58 98.52 201.58 231.47 213.47 220.73 213.47 90.92"/>
  <polygon class="andesite-icon-black" points="188.28 107.03 184.32 109.56 184.32 0 180.35 0 180.35 112.09 176.39 114.63 176.39 220.34 188.28 228.27 188.28 107.03"/>
  <polygon class="andesite-icon-black" points="415 233.48 408.97 225.11 411.04 227.98 411.04 0 407.07 0 407.07 222.48 403.11 216.98 403.11 274.09 389.81 255.73 389.81 198.52 383.75 190.11 385.84 193.01 385.84 0 381.88 0 381.88 187.51 377.92 182.01 377.92 239.32 364.62 220.97 364.62 163.55 358.76 155.42 360.65 158.05 360.65 0 356.69 0 356.69 152.55 352.73 147.05 352.73 204.56 339.43 186.2 339.43 128.59 333.48 120.34 335.46 123.09 335.46 0 331.5 0 331.5 117.59 327.54 112.09 327.54 169.79 314.23 151.44 314.23 93.63 308.29 85.38 310.27 88.13 310.27 0 306.31 0 306.31 82.63 302.35 77.13 302.35 140.5 304.74 138.34 304.74 138.34 238.66 197.99 238.66 74.81 234.7 77.35 234.7 0 230.73 0 230.73 79.88 226.77 82.42 226.77 208.72 197.97 234.73 142.83 197.97 137.9 201.34 137.9 107.96 136.59 107.69 133.93 110.29 133.93 0 129.97 0 129.97 114.16 126.01 118.03 126.01 209.45 112.71 218.52 112.71 131.03 108.74 134.9 108.74 0 104.78 0 104.78 138.78 100.82 142.65 100.82 226.63 87.52 235.7 87.52 155.65 83.55 159.52 83.55 0 79.59 0 79.59 163.39 75.63 167.27 75.63 243.81 62.32 252.89 62.32 180.27 58.36 184.14 58.36 0 54.4 0 54.4 188.01 50.43 191.89 50.43 261 37.13 270.07 37.13 204.89 33.17 208.76 33.17 0 29.21 0 29.21 212.63 25.24 216.51 25.24 278.18 11.94 287.25 11.94 229.51 6 235.32 7.98 233.37 7.98 0 4.02 0 4.02 234.85 .05 233.91 .05 295.36 0 295.39 0 357.62 414.87 357.69 414.87 290.49 415 290.66 415 233.48"/>
  <polygon class="andesite-icon-black" points="263.85 58.71 259.89 61.24 259.89 0 255.93 0 255.93 63.77 251.96 66.31 251.96 185.98 263.85 175.25 263.85 58.71"/>
  <polygon class="andesite-icon-black" points="289.04 58.67 281.12 47.67 277.15 50.2 277.15 163.24 289.04 152.5 289.04 58.67"/>
</svg>
