<svg width="80" height="80" viewBox="0 0 80 80" fill="none" xmlns="http://www.w3.org/2000/svg">
<rect width="80" height="80" fill="none"/>
<path d="M29.3003 32.4492V44.3916H31.4537V32.4492H29.3003ZM51.3611 32.4492V44.3916H53.5272V40.0847C53.8567 40.4658 54.1295 40.9125 54.4244 41.3189L55.9037 43.3716L56.5244 44.2341C56.5811 44.3109 56.6744 44.5125 56.7714 44.5378C56.8225 44.5505 56.8961 44.512 56.9434 44.4956L57.3297 44.3583L58.7655 43.8605L58.0825 42.9998L56.7072 41.2912L55.9127 40.3008L55.4931 39.7992V39.7847C55.7495 39.5888 55.9694 39.292 56.1855 39.0525L57.4178 37.7325L58.0094 37.1006C58.0919 37.0073 58.1978 36.9286 58.2494 36.8133C57.85 36.6998 57.4548 36.4781 57.0719 36.3136C56.9767 36.2733 56.7311 36.112 56.6289 36.1453C56.5577 36.1692 56.4897 36.2845 56.4423 36.3413L56.0083 36.8428L54.3733 38.738L53.9284 39.2545C53.8736 39.3169 53.8075 39.4284 53.7269 39.4612C53.6702 39.4833 53.5895 39.4688 53.5272 39.4688V32.4492H51.3611ZM61.1481 34.2366C61.0408 34.2516 60.9382 34.2904 60.8477 34.35C60.2341 34.7639 60.5987 35.8055 61.3492 35.6869C61.4627 35.6705 61.5709 35.6339 61.6661 35.5678C62.2759 35.1469 61.8967 34.1194 61.1481 34.2366ZM61.1627 34.3481C61.9319 34.2384 62.0945 35.4759 61.3347 35.5748C60.5823 35.6737 60.4192 34.4559 61.1627 34.3481ZM60.9906 35.377H61.1205V35.033C61.1992 35.033 61.2855 35.0273 61.3403 35.0934C61.4467 35.2233 61.3478 35.377 61.5653 35.377C61.5377 35.2491 61.5377 35.04 61.3933 34.9908C61.4373 34.9617 61.4814 34.9341 61.5123 34.89C61.6956 34.6191 61.1903 34.4339 61.0145 34.575C60.9705 34.6097 60.9906 34.725 60.9906 34.7747V35.377ZM61.1205 34.9322C61.1205 34.868 61.0928 34.7236 61.135 34.6702C61.2559 34.522 61.5873 34.868 61.278 34.9284C61.2269 34.9378 61.1716 34.9322 61.1205 34.9322ZM13.1411 43.6589C13.608 43.9683 14.0402 44.2814 14.5895 44.4314C15.9812 44.8125 17.9533 44.5908 18.6691 43.1569C18.7625 42.9759 18.8286 42.7821 18.865 42.5817C18.9142 42.3052 18.9142 42.0267 18.8777 41.7506C18.7202 40.5914 17.455 39.8995 16.6127 39.2475C16.3291 39.0277 15.9883 38.7895 15.8017 38.4764C15.483 37.9416 15.9264 37.4053 16.4702 37.3102C16.8494 37.2422 17.2722 37.3341 17.6181 37.4916C17.7775 37.5647 17.9205 37.6711 18.0775 37.7461C18.2186 37.4897 18.3869 37.2483 18.5388 36.9989C18.5772 36.9384 18.6962 36.803 18.6817 36.7298C18.6653 36.6511 18.4731 36.5836 18.407 36.5503C18.1122 36.4022 17.8103 36.2775 17.4897 36.1969C16.2737 35.8913 14.6495 36.0431 13.9155 37.2005C13.7954 37.3904 13.7075 37.5988 13.6553 37.8173C13.6145 37.9963 13.5954 38.1795 13.5986 38.363C13.6131 39.5827 14.7578 40.2563 15.6236 40.9045C16.1617 41.3091 16.832 41.7469 16.7242 42.5105C16.7078 42.6277 16.6637 42.7411 16.6014 42.84C16.1509 43.5652 15.1258 43.3566 14.5178 42.9975C14.3477 42.8967 14.1864 42.7795 14.0308 42.6567C13.9886 42.6239 13.9042 42.5302 13.8456 42.5377C13.7744 42.5484 13.69 42.7538 13.6534 42.8123C13.4852 43.0908 13.278 43.3636 13.1406 43.6584M21.9808 37.4292L21.9662 36.2536H19.8869V48.4669H21.9672V43.3144C22.4266 43.7737 22.8536 44.2411 23.4887 44.4534C23.897 44.5889 24.34 44.6091 24.767 44.5781C25.1149 44.5548 25.4578 44.482 25.7852 44.362C27.7314 43.6481 28.5484 41.4525 28.3431 39.5264C28.2077 38.2758 27.5795 37.0345 26.417 36.4505C26.0964 36.2911 25.7669 36.172 25.4116 36.1134C24.877 36.0241 24.3298 36.0453 23.8037 36.1758C23.0256 36.3773 22.5255 36.8752 21.9817 37.4302M44.2839 37.3439H44.2712V36.5691L44.2567 36.2761L44.1119 36.2541H42.1033V44.3911H44.2712V40.6448C44.2712 39.9525 44.185 39.1894 44.4578 38.5355C44.8755 37.5248 46.503 37.1236 47.283 37.9603C47.7845 38.5003 47.7297 39.3173 47.7297 39.9984V44.3911H49.8812V39.9562C49.8812 39.0553 49.9361 38.0667 49.4748 37.2572C48.6452 35.8087 46.3895 35.7502 45.1169 36.5981C44.8422 36.7814 44.4395 37.0453 44.2839 37.3439ZM32.86 36.2395V40.4878C32.86 41.2805 32.7723 42.1833 33.0484 42.9413C33.1731 43.2872 33.3522 43.6317 33.6217 43.8881C34.4805 44.7084 35.9875 44.7778 37.0511 44.3569C37.615 44.1319 38.0491 43.7381 38.4719 43.3148V44.3916H40.6253V36.382L40.6014 36.2541L40.4383 36.2395H38.4719V39.9712C38.4719 40.6744 38.5506 41.4487 38.2595 42.1102C38.1222 42.4177 37.8986 42.6905 37.6112 42.8681C36.9592 43.2708 35.8844 43.2473 35.3866 42.6117C34.9966 42.1139 35.013 41.46 35.013 40.8614V36.6703C35.013 36.5897 35.057 36.308 34.9891 36.2545C34.9525 36.2255 34.8719 36.24 34.8259 36.24H32.8595M60.6166 36.3408V37.403L60.6311 37.7948L61.0192 37.9945L62.0373 38.4909L64.0478 39.4725L65.6556 40.2581L64.2053 40.972L61.9661 42.0778L61.0047 42.5522L60.6311 42.7463L60.6166 43.1438V44.1619C60.7923 44.1309 60.9756 44.0025 61.1345 43.9219L62.1381 43.4203L65.3828 41.8125L66.5875 41.2102C66.7342 41.137 67.0014 41.062 67.1092 40.9392C67.1659 40.875 67.1331 40.6973 67.1331 40.6172V39.9436C67.1331 39.8484 67.1552 39.7219 67.1275 39.6305C67.0984 39.5316 66.82 39.4453 66.73 39.4017L65.5398 38.8064L62.1962 37.1273L61.1472 36.5962C60.977 36.51 60.7994 36.3928 60.6161 36.3417M23.9472 37.3505C24.7712 37.2516 25.4467 37.7972 25.78 38.5078C26.2614 39.5334 26.2084 40.9594 25.7894 41.9958C25.533 42.6295 25.0422 43.2408 24.3208 43.3144C23.2881 43.4189 22.4969 42.8147 22.1622 41.8514C22.0356 41.4891 21.9827 41.1005 21.9662 40.718C21.917 39.5789 22.1073 38.0484 23.2862 37.508C23.4986 37.4109 23.7184 37.3763 23.9472 37.3505Z" fill="#0C1724"/>
</svg>
