<svg id="Layer_1" data-name="Layer 1" xmlns="http://www.w3.org/2000/svg" xmlns:xlink="http://www.w3.org/1999/xlink" viewBox="0 0 819.01 819.01"><defs><style>.cls-1{fill:#75839b;}.cls-2{fill:url(#linear-gradient);}.cls-3{fill:url(#linear-gradient-2);}.cls-4{fill:url(#linear-gradient-3);}</style><linearGradient id="linear-gradient" x1="527.08" y1="577.47" x2="383.66" y2="163.39" gradientTransform="translate(710.2 -176.93) rotate(74.31)" gradientUnits="userSpaceOnUse"><stop offset="0" stop-color="#1b1f29"/><stop offset="1" stop-color="#75839b"/></linearGradient><linearGradient id="linear-gradient-2" x1="411.13" y1="407.75" x2="753.5" y2="530.36" xlink:href="#linear-gradient"/><linearGradient id="linear-gradient-3" x1="542.06" y1="347.8" x2="303.79" y2="685.54" xlink:href="#linear-gradient"/></defs><path class="cls-1" d="M797.74,484.66a83.71,83.71,0,0,1,0-150.31,37.76,37.76,0,0,0,19.76-44.48,422.41,422.41,0,0,0-35-84.35,37.7,37.7,0,0,0-45.35-17.38A83.71,83.71,0,0,1,630.88,81.86,37.73,37.73,0,0,0,613.49,36.5a422.38,422.38,0,0,0-84.35-35,37.76,37.76,0,0,0-44.48,19.76,83.68,83.68,0,0,1-75.15,46.84,83.69,83.69,0,0,1-75.16-46.84A37.75,37.75,0,0,0,289.87,1.52a422.38,422.38,0,0,0-84.35,35,37.71,37.71,0,0,0-17.38,45.36A83.72,83.72,0,0,1,81.86,188.14,37.71,37.71,0,0,0,36.5,205.52a422.38,422.38,0,0,0-35,84.35,37.76,37.76,0,0,0,19.76,44.48,83.69,83.69,0,0,1,46.84,75.16,83.68,83.68,0,0,1-46.84,75.15A37.77,37.77,0,0,0,1.52,529.14a422.38,422.38,0,0,0,35,84.35,37.73,37.73,0,0,0,45.36,17.39A83.71,83.71,0,0,1,188.14,737.15a37.71,37.71,0,0,0,17.38,45.36,421.79,421.79,0,0,0,84.35,35,37.75,37.75,0,0,0,44.48-19.75,83.71,83.71,0,0,1,150.31,0,37.75,37.75,0,0,0,44.48,19.75,421.79,421.79,0,0,0,84.35-35,37.72,37.72,0,0,0,17.39-45.36A83.71,83.71,0,0,1,737.16,630.88a37.72,37.72,0,0,0,45.35-17.39,422.41,422.41,0,0,0,35-84.35A37.77,37.77,0,0,0,797.74,484.66ZM409.51,567.25A157.75,157.75,0,1,1,567.25,409.51,157.75,157.75,0,0,1,409.51,567.25Z"/><path class="cls-2" d="M554.8,142.48a243.56,243.56,0,0,1-95,405A146.69,146.69,0,0,1,265.43,383.22,243.58,243.58,0,0,0,737.8,501.14c1.07-3.87,2.11-7.74,3-11.63,27-112.34-3.8-235.63-92.11-322.62S436.5,51,324.53,79.75A243.41,243.41,0,0,1,554.8,142.48Z"/><path class="cls-3" d="M141.48,339.76a243.74,243.74,0,0,0,21.61,304.63c2.33,2.45,4.64,4.92,7.06,7.32l1.16,1.14c2.64,2.58,5.34,5,8,7.52,134.5,123.68,343.82,119.42,473-11.77A339,339,0,0,0,737.8,501.14,243.58,243.58,0,0,1,265.43,383.22a146.64,146.64,0,0,1,240.44-84.34,242.48,242.48,0,0,0-103-55.91,244,244,0,0,0-261.38,96.79Z"/><path class="cls-4" d="M312.35,83.14A338.91,338.91,0,0,0,167,170.55C37.59,302,36.73,511.81,163.09,644.39A243.56,243.56,0,0,1,505.87,298.88c2.3,2,4.56,4,6.75,6.2,2.45,2.41,4.75,4.91,7,7.44a146.69,146.69,0,0,1-59.83,234.93A243.59,243.59,0,0,0,324.53,79.75Q318.41,81.32,312.35,83.14Z"/></svg>
